<svg width="11" height="11" viewBox="0 0 11 11" fill="none" xmlns="http://www.w3.org/2000/svg">
<path d="M1.89116 1.00703C1.64708 0.762955 1.25135 0.762955 1.00728 1.00703C0.763199 1.25111 0.763199 1.64684 1.00728 1.89092L4.61649 5.50013L1.00731 9.1093C0.763237 9.35338 0.763237 9.74911 1.00731 9.99319C1.25139 10.2373 1.64712 10.2373 1.8912 9.99319L5.50037 6.38401L9.10954 9.99319C9.35362 10.2373 9.74935 10.2373 9.99343 9.99319C10.2375 9.74911 10.2375 9.35338 9.99343 9.1093L6.38425 5.50013L9.99346 1.89092C10.2375 1.64684 10.2375 1.25111 9.99346 1.00703C9.74939 0.762955 9.35366 0.762955 9.10958 1.00703L5.50037 4.61624L1.89116 1.00703Z" fill="#181D27"/>
</svg>
