<svg width="40" height="40" viewBox="0 0 40 40" fill="none" xmlns="http://www.w3.org/2000/svg">
<rect x="4" y="4" width="32" height="32" rx="16" fill="#FF4B55"/>
<path d="M15.5 22.909C15.0607 23.3483 15.0607 24.0607 15.5 24.5C15.9393 24.9393 16.6517 24.9393 17.091 24.5L24.5 17.091C24.9393 16.6516 24.9393 15.9393 24.5 15.5C24.0607 15.0607 23.3483 15.0607 22.909 15.5L15.5 22.909Z" fill="white"/>
<path fill-rule="evenodd" clip-rule="evenodd" d="M13.636 26.364C17.1508 29.8787 22.8492 29.8787 26.364 26.364C29.8787 22.8492 29.8787 17.1508 26.364 13.636C22.8492 10.1213 17.1508 10.1213 13.636 13.636C10.1213 17.1508 10.1213 22.8492 13.636 26.364ZM25 25C22.364 27.636 17.636 27.636 15 25C12.364 22.364 12.364 17.636 15 15C17.636 12.364 22.364 12.364 25 15C27.636 17.636 27.636 22.364 25 25Z" fill="white"/>
</svg>
