<svg width="40" height="40" viewBox="0 0 40 40" fill="none" xmlns="http://www.w3.org/2000/svg">
<rect x="36" y="36" width="32" height="32" rx="16" transform="rotate(-180 36 36)" fill="#377FF7"/>
<path d="M20 26C19.4477 26 19 25.5523 19 25L19 19C19 18.4477 19.4477 18 20 18C20.5523 18 21 18.4477 21 19L21 25C21 25.5523 20.5523 26 20 26Z" fill="white"/>
<path d="M20 16C20.5523 16 21 15.5523 21 15C21 14.4477 20.5523 14 20 14C19.4477 14 19 14.4477 19 15C19 15.5523 19.4477 16 20 16Z" fill="white"/>
<path fill-rule="evenodd" clip-rule="evenodd" d="M20 30C25.5228 30 30 25.5228 30 20C30 14.4772 25.5228 10 20 10C14.4772 10 10 14.4772 10 20C10 25.5228 14.4772 30 20 30ZM28 20C28 15.5817 24.4183 12 20 12C15.5817 12 12 15.5817 12 20C12 24.4183 15.5817 28 20 28C24.4183 28 28 24.4183 28 20Z" fill="white"/>
</svg>
