<svg width="10" height="10" viewBox="0 0 10 10" fill="none" xmlns="http://www.w3.org/2000/svg">
<path d="M10 4.99005C10 5.49288 9.59238 5.9005 9.08955 5.9005H8.00717C6.90656 5.9005 6.01434 6.79272 6.01434 7.89333V8.97541C6.01434 9.54128 5.55562 10 4.98975 10C4.42389 10 3.96516 9.54128 3.96516 8.97541V7.88308C3.96516 6.78813 3.07753 5.9005 1.98258 5.9005H0.910448C0.407621 5.9005 0 5.49288 0 4.99005C0 4.48722 0.407621 4.0796 0.910448 4.0796H1.98258C3.07753 4.0796 3.96516 3.19197 3.96516 2.09702V1.02459C3.96516 0.458724 4.42389 0 4.98975 0C5.55562 0 6.01434 0.458724 6.01434 1.02459V2.08678C6.01434 3.18738 6.90656 4.0796 8.00717 4.0796H9.08955C9.59238 4.0796 10 4.48722 10 4.99005Z" fill="#828282"/>
</svg>
